<svg width="22" height="22" viewBox="0 0 22 22" fill="none" xmlns="http://www.w3.org/2000/svg">
<path d="M11.4167 7.59851C9.30711 7.59851 7.59847 9.30714 7.59847 11.4167C7.59847 13.5262 9.30711 15.2349 11.4167 15.2349C13.5262 15.2349 15.2348 13.5262 15.2348 11.4167C15.2348 9.30714 13.5262 7.59851 11.4167 7.59851ZM19.9503 10.4621C19.5112 6.48169 16.3517 3.32214 12.3712 2.88305V0.916687H10.4621V2.88305C6.48166 3.32214 3.32211 6.48169 2.88302 10.4621H0.916656V12.3712H2.88302C3.32211 16.3517 6.48166 19.5112 10.4621 19.9503V21.9167H12.3712V19.9503C16.3517 19.5112 19.5112 16.3517 19.9503 12.3712H21.9167V10.4621H19.9503V10.4621ZM11.4167 18.0985C7.72257 18.0985 4.73484 15.1108 4.73484 11.4167C4.73484 7.7226 7.72257 4.73487 11.4167 4.73487C15.1107 4.73487 18.0985 7.7226 18.0985 11.4167C18.0985 15.1108 15.1107 18.0985 11.4167 18.0985Z" fill="#E7E7EB"/>
</svg>
